Patient4_TMGait_0pt6_01_right_18_EMG.mot
version=1
nRows=34
nColumns=33
inDegrees=no
endheader
time	1LAddLong	2LGlutMax	3LGlutMed	4LIliopsoas	5LSemiMemb	6LBicFemLong	7LRecFem	8LVastMed	9LVastLat	10LGasMed	11LTibAnt	12lTibPost	13LPeroneusLong	14LSol	15LExtDigLong	16LFlexDigLong	17RAddLong	18RGlutMax	19RGlutMed	20RIliopsoas	21RSemiMemb	22RBicFemLong	23RRecFem	24RVastMed	25RVastLat	26RGasMed	27RTibAnt	28RTibPost	29RPeroneusLong	30RSol	31RExtDigLong	32RFlexDigLong
21.72	0.02243	-0.084686	0.13641	-0.009918	0.006409	0.008698	-0.88486	-0.010986	0.12894	-0.00946	-0.034637	-0.001678	-0.16312	-0.13718	0.073395	-0.002441	-0.084534	0.52689	1.5578	-0.1207	0.39215	-0.25848	0.34775	-0.017242	0.095062	0.018921	-0.19424	0.01236	-1.7859	-0.31982	-0.003357	-0.007019
21.721	0.005188	-0.078125	0.13412	0.006714	0.007935	-0.015411	-0.78339	-0.015717	0.12695	0.003967	0.045013	0.001068	-0.13046	-0.076141	0.10117	0.001984	-0.059052	0.46295	0.8847	-0.10025	0.26581	-0.25192	0.2562	0.041046	0.063629	-0.005493	-0.31693	0.001373	0.97763	-0.18158	-0.001526	-0.001526
21.722	-0.010986	-0.10574	0.13779	0.009155	-0.001678	-0.001678	-0.66666	-0.011902	0.11841	0	0.076599	-0.001678	-0.15274	-0.032806	0.18341	-0.010986	-0.035095	0.30121	-0.24231	0.016479	-0.033569	-0.14053	0.15564	0.20935	0.073395	-0.054169	-0.081177	0.023499	0.92682	0.013733	-0.002594	0.002594
21.723	-0.005341	-0.14252	0.12039	0.007324	0.005951	-0.002899	-0.62973	-0.009155	0.098114	-0.001678	0.08667	0.000305	-0.1767	0.010071	0.16037	-0.016937	-0.090332	-0.018616	-0.71518	0.14633	-0.10605	-0.25604	-0.043793	0.28275	0.064392	-0.13748	0.060577	0.026703	0.26779	0.3801	-0.003357	-0.005188
21.724	-0.003204	-0.24628	0.045776	0.024109	0.00351	0.001068	-0.62057	-0.013123	0.079498	0.016937	0.018463	0.004425	-0.17303	0.03418	0.32227	-0.009003	-0.06485	-0.40024	-1.1446	0.21225	-0.013428	-0.15549	-0.039978	0.22232	0.33981	-0.067749	0.044708	-0.005798	-0.7756	0.6279	-0.001068	-0.004425
21.725	-0.007477	-0.33035	0.024719	0.021515	0.009766	0.006104	-0.52277	-0.011902	0.061493	0.016479	-0.059509	0.000916	-0.15228	0.049591	0.37231	-0.010071	-0.047302	-0.71045	-1.8333	0.093384	0.27802	0.025482	-0.030212	0.11948	0.42496	0.008087	-0.10834	-0.046082	-0.09201	0.30365	-0.003357	-0.005493
21.726	-0.002594	-0.37689	0.011292	0.001831	0.007477	0.010529	-0.39612	-0.008545	0.050049	0.023804	0.063019	0.004883	-0.11948	0.068054	0.88135	-0.00061	-0.039978	-1.0382	-1.8393	-0.001221	0.45258	0.042725	0.12772	0.072174	0.31448	0.026093	-0.10757	-0.065002	0.07019	0.001831	-0.001678	-0.016479
21.727	-0.009918	-0.31097	-0.005646	-0.011597	0.001526	-0.00885	-0.26276	-0.012207	0.029907	0.018005	0.20767	0.001984	-0.1358	0.1239	0.34775	-0.001831	0.005493	-1.095	-1.2822	-0.042877	0.3923	-0.45013	0.093536	0.12161	0.17395	-0.006714	-0.029907	0.11948	0.38696	-0.16312	-0.002289	-0.024109
21.728	-0.015259	-0.27542	-0.029297	-0.004578	0.015106	-0.012054	-0.11047	-0.01297	0.003967	-0.000916	0.21759	0.002899	-0.10086	0.14954	-0.56335	-0.006409	0.039825	-1.111	-0.75211	0.019226	0.14557	-0.55954	0.10483	0.037842	-0.084381	0.006104	0.029755	0.011749	0.5896	-0.24521	-0.000305	-0.022736
21.729	-0.015411	-0.29312	-0.049438	0.019836	0.01297	-0.022736	-0.055084	-0.015869	0.003204	-0.02533	0.07309	0.002594	-0.07019	0.16617	-0.56458	-0.00473	-0.014038	-1.2871	-0.67993	0.052795	-0.2179	-0.28503	0.020447	-0.055084	-0.3891	0.015564	0.070801	-0.019989	0.61706	0.09552	-0.001678	-0.018311
21.73	-0.007019	-0.21179	-0.082703	0.034485	0.002289	0.012054	-0.009003	-0.007324	-0.014191	0.021973	-0.090332	0.005341	-0.1355	0.093536	-0.31265	-0.022583	-0.056763	-1.4059	-0.81833	0.086212	-0.26077	0.070648	-0.1442	0.13062	-0.49103	0.017395	0.085754	-0.021973	0.42816	0.62927	-0.001221	-0.013885
21.731	-0.007019	-0.16144	-0.12222	0.028381	0.002136	-0.00351	-0.034943	0.003662	-0.027771	0.064392	-0.14816	0.00061	-0.17395	0.026855	-0.2858	-0.025177	-0.077972	-1.5034	-0.68207	0.13107	0.2977	0.28564	0.033112	0.25528	-0.55847	-0.008545	0.078888	-0.007782	-0.11169	0.57434	-0.005188	-0.009155
21.732	-0.005798	-0.075684	-0.13916	-0.007019	0.006256	0.007629	-0.055847	0.005646	-0.026398	0.041199	-0.11841	0.001068	-0.091248	0.054016	-0.38361	0.001526	-0.045319	-1.568	-0.73807	0.18005	0.31052	0.24017	0.19226	0.14175	-0.55328	-0.079498	0.08606	-0.01709	-0.79575	0.14725	-0.003815	0.000763
21.733	0.001221	0.013733	-0.12207	-0.003967	0.001831	0.027618	-0.095062	0.006104	-0.024567	0.008392	0.11124	0.00061	-0.039063	0.16052	-0.24399	-0.009613	-0.044861	-1.5915	-0.60028	0.10513	0.1535	-0.03067	0.26215	0.092468	-0.36057	-0.082703	0.026398	-0.042419	-0.80109	-0.16434	-0.00351	-0.000458
21.734	-0.006256	0.15305	-0.13809	0.002899	0.000458	0.016785	-0.091095	0.000763	-0.007172	0.004578	0.20691	0.007019	-0.062408	0.24841	-0.055084	-0.002594	-0.041504	-1.5535	-0.57159	-0.006714	0.092468	-0.20813	0.14847	0.062561	-0.14587	-0.025177	-0.016022	-0.042267	-0.49118	-0.19623	-0.004425	-0.002747
21.735	0.000763	0.27741	-0.16754	0	0.002899	0.00946	-0.059357	0.008698	-0.023193	0.012817	0.044708	0.013885	-0.074005	0.24994	-0.027313	-0.007172	-0.031586	-1.5067	-0.64301	-0.057678	0.039673	-0.22736	0.22171	-0.081482	0.13351	-0.049744	0.011902	-0.000305	0.01297	-0.4422	-0.005035	-0.000916
21.736	0.001831	0.30334	-0.17471	-0.02121	0.003662	0.026245	-0.003204	0.004425	-0.047913	0.023346	-0.11124	0.010529	-0.082855	0.18021	0.093842	-0.018005	-0.005493	-1.4604	-0.75378	-0.097961	0.046082	-0.16846	0.31509	-0.27069	0.20569	-0.024414	0.042419	-0.11261	0.39764	-0.63065	-0.005341	-0.011902
21.737	0.002136	0.3833	-0.20233	-0.010681	0.00473	0.019073	0.040588	0.007935	-0.03418	-0.019531	0.005646	0.006256	-0.043182	0.093994	0.066223	-0.019226	0.016785	-1.5009	-0.95581	-0.046997	0.037384	-0.082397	0.27908	-0.2214	0.12924	0.036469	0.050964	-0.27298	0.83878	-0.53375	0.002441	-0.007324
21.738	0.000153	0.45288	-0.20264	0.02594	0.004425	0.013428	0.077057	0.010223	-0.029755	0.012207	-0.1326	0.006561	-0.034027	0.000305	0.60699	-0.040894	0.041962	-1.4053	-0.70847	-0.044556	-0.095673	-0.046844	0.034027	-0.033112	0.071259	0.046082	0.095215	0.019836	1.3832	-0.2356	0.000305	0.00412
21.739	0.001678	0.50613	-0.23682	0.029297	0.001068	-0.001068	0.098419	0.005951	-0.03006	0.048218	-0.17303	0.006256	-0.083466	-0.065613	0.60959	-0.035095	0.025482	-1.2152	-0.60501	0.04776	-0.23132	-0.13138	-0.12054	0.25406	0.055847	0.01236	0.19608	0.12375	1.4778	-0.19821	-0.00351	0.013885
21.74	-0.000153	0.62515	-0.24887	0.019226	0.002594	0.007172	0.13825	0.006256	-0.028534	0.036621	0.085144	0.007629	-0.060577	-0.039063	-0.55954	-0.0354	0.031433	-1.114	-0.37384	-0.011444	-0.19714	-0.31662	-0.24307	0.37323	0.12466	-0.009613	0.30273	0.12833	-0.25757	0.079803	-0.004883	0.006714
21.741	0.001221	0.7608	-0.21179	0.00061	-0.006104	0.018768	0.16464	0.008392	-0.027313	0.052338	0.14908	0.015411	-0.090332	-0.053101	-0.71014	-0.037079	-0.023346	-1.0309	-0.13809	-0.064697	-0.21149	-0.3215	-0.33829	0.44922	0.17166	0.000458	0.25665	0.029449	-1.8193	0.35919	-0.003662	-0.00061
21.742	0.00351	0.80399	-0.24582	0.006866	0.005493	-0.009155	0.17044	0.007935	-0.032349	0.076904	0	0.015106	-0.1416	-0.064545	-0.7666	-0.03006	-0.028381	-1.0262	-0.14496	-0.046997	-0.16724	-0.2652	-0.26428	0.4039	0.07309	-0.000305	0.18143	0.10971	-1.778	0.29236	-0.005188	0.002441
21.743	0.000305	0.88303	-0.28107	0.04364	0.001831	0.005341	0.15656	0.006256	-0.011444	0.072937	-0.071869	0.014496	-0.12405	-0.12344	-0.55908	-0.035553	-0.046692	-0.93918	-0.12497	-0.010376	-0.12756	0.10452	-0.2861	0.27954	0.13306	0.023956	0.0737	0.11353	-0.87204	-0.039673	-0.001068	-0.001526
21.744	0.006256	0.96024	-0.33493	0.055695	-0.000458	-0.005646	0.20813	0.009766	-0.03006	0.07843	0.020294	0.01236	-0.12329	-0.19028	0.26032	-0.035095	-0.024719	-0.82626	0.13458	-0.029602	-0.009613	0.31067	-0.2095	0.11917	0.15076	0.044403	-0.047455	-0.018158	-0.73624	-0.58884	-0.003662	0.003967
21.745	-0.001373	1.0139	-0.31921	0.043182	-0.003204	-0.012817	0.27451	0.005951	-0.027466	0.06073	-0.052643	0.007782	-0.054016	-0.16113	-0.14511	-0.030212	0.02121	-0.73151	-0.41443	0.010834	0.020752	0.25574	0.007629	-0.22308	0.068359	0.036163	-0.028839	0.10559	-0.45639	-0.43564	-0.003204	0.001373
21.746	0.001678	1.0077	-0.26779	-0.003357	0.002289	-0.001221	0.30151	0.006104	-0.026245	0.05188	-0.035553	0.007019	-0.021515	-0.08194	-0.15213	-0.02243	0.049896	-0.80963	-0.36209	0.074158	0.046997	0.1355	0.11322	-0.27191	-0.016632	0.012207	0.091705	0.1207	1.033	-0.26535	-0.001373	-0.004425
21.747	0.006866	1.0072	-0.32028	-0.010223	0.005798	-0.009155	0.31296	0.006866	-0.029907	0.02594	-0.024567	0.007477	-0.00412	-0.087585	0.057526	-0.03479	0.041809	-0.72739	-0.11932	0.050507	0.16296	0.054626	-0.034637	-0.2095	0.001831	0.005646	0.11902	0.0383	0.97275	-0.11353	-0.003052	0
21.748	0.011597	0.98465	-0.30533	-0.008698	0.008698	0.011597	0.31143	0.00473	-0.023499	0.025024	0.007477	0.001831	-0.015259	-0.068665	0.043488	-0.028076	0.005493	-0.52719	0.06546	0.095978	-0.01236	-0.086212	-0.10666	0.003204	0.05127	0.011749	0.10803	0.002899	1.4406	0.15732	-0.003204	-0.007782
21.749	-0.010071	0.94269	-0.27649	-0.013885	0.003204	0.006256	0.31677	0.006866	-0.013428	0.055847	0.009308	-0.00351	-0.065155	-0.02243	0.057983	-0.024109	0.010681	-0.51209	0.050812	0.10574	-0.055084	-0.54367	-0.053864	0.073853	0.112	0.030823	-0.029144	-0.003815	1.8066	0.39993	-0.001831	-0.005341
21.75	0.001678	0.93704	-0.28214	0.005341	0.00473	-0.002747	0.36743	0.003204	-0.003357	0.078888	0.10376	-0.003204	-0.13947	-0.086365	0.1651	-0.02243	0.019836	-0.42786	0.16388	0.029755	0.26001	-0.85754	-0.047913	0.13565	0.11261	0.032501	-0.007782	-0.031891	0.87418	0.29221	-0.006714	0.009613
21.751	0.00061	0.93201	-0.31616	0.001984	0.011292	-0.019684	0.3743	0.013885	0.015106	0.089111	0.14801	0	-0.17151	-0.077515	0.13336	-0.022888	0.005188	-0.28824	0.24185	-0.062561	0.22186	-0.70587	-0.15182	0.09552	0.10819	0.070648	0.029144	-0.045624	-1.4777	0.12512	-0.003967	0.016937
21.752	-0.008087	0.87845	-0.31158	-0.009766	0.01358	-0.017853	0.41275	0.006256	0.019531	0.065613	0.013733	0.007172	-0.14771	-0.019836	0.11215	-0.029297	-0.001221	-0.09079	0.27161	-0.14175	-0.17487	-0.78247	-0.14069	0.059662	0.12894	0.036469	0.2301	-0.050049	-1.8781	0.04776	-0.003204	0.008698
21.753	0.001526	0.83038	-0.29709	-0.000916	0.007019	-0.003052	0.48584	0.000458	0.023956	0.031738	-0.16312	0.01236	-0.099487	0.070648	0.040588	-0.00946	0.033875	0.10559	0.8403	-0.09964	-0.22568	-0.73898	-0.028381	0.020905	0.088196	-0.013428	0.19608	-0.22324	-0.63187	0.014801	-0.002289	0.015411
